<?xml version="1.0" encoding="utf-8"?>
<!-- Generator: Adobe Illustrator 24.0.2, SVG Export Plug-In . SVG Version: 6.00 Build 0)  -->
<svg version="1.1" id="Capa_1" xmlns="http://www.w3.org/2000/svg" xmlns:xlink="http://www.w3.org/1999/xlink" x="0px" y="0px"
	 viewBox="0 0 810.7 1012" style="enable-background:new 0 0 810.7 1012;" xml:space="preserve">
<style type="text/css">
	.st0{fill-rule:evenodd;clip-rule:evenodd;fill:#FFA200;}
</style>
<path class="st0" d="M474.1,418.8H336.4c-11.4,0-20.7,9-20.7,20.2v134.5c0,11.2,9.3,20.2,20.7,20.2h137.7c11.4,0,20.7-9,20.7-20.2
	V439C494.7,427.8,485.5,418.8,474.1,418.8z M399.8,473c23.2-3.5,43,15.8,39.4,38.5c-2.2,14.2-14,25.8-28.5,27.9
	c-23.3,3.5-43.1-15.8-39.5-38.6C373.5,486.7,385.3,475.2,399.8,473z M472.4,565.1c0,3.7-3.1,6.7-6.9,6.7H345c-3.8,0-6.9-3-6.9-6.7
	v-73.4h14.1c-0.7,2.3-1.1,4.7-1.5,7.1c-2.1,13.8,0.3,28.8,23,48.8c8.4,7.4,19.1,12.3,30.4,12.5c30.9,0.6,56.1-23.7,56.1-53.8
	c0-2.6-0.2-5-0.6-7.5c-0.4-2.4-0.8-4.8-1.5-7.1h14.1V565.1z M472.4,463.2c0,3.7-3.1,6.7-6.9,6.7h-16.2c-3.8,0-6.9-3-6.9-6.7v-15.8
	c0-3.7,3.1-6.7,6.9-6.7h16.2c3.8,0,6.9,3,6.9,6.7V463.2z"/>
</svg>
