<?xml version="1.0" encoding="utf-8"?>
<!-- Generator: Adobe Illustrator 24.0.2, SVG Export Plug-In . SVG Version: 6.00 Build 0)  -->
<svg version="1.1" id="Capa_1" xmlns="http://www.w3.org/2000/svg" xmlns:xlink="http://www.w3.org/1999/xlink" x="0px" y="0px"
	 viewBox="0 0 810.7 1012" style="enable-background:new 0 0 810.7 1012;" xml:space="preserve">
<style type="text/css">
	.st0{fill:#FFA200;}
</style>
<path class="st0" d="M317.4,594.5l12.4-45.3c-7.7-13.3-11.7-28.3-11.7-43.7c0-48.2,39.3-87.5,87.5-87.5c23.4,0,45.4,9.1,61.9,25.7
	c16.5,16.5,25.6,38.5,25.6,61.9c0,48.2-39.3,87.5-87.5,87.5c-14.6,0-29.1-3.7-41.8-10.7C363.8,582.3,317.4,594.5,317.4,594.5z
	 M365.9,566.5c12.3,7.3,24.1,11.7,39.7,11.7c40.1,0,72.7-32.6,72.8-72.7c0-40.2-32.5-72.8-72.7-72.8c-40.1,0-72.7,32.6-72.8,72.7
	c0,16.4,4.8,28.6,12.8,41.5l-7.4,26.8C338.4,573.7,365.9,566.5,365.9,566.5z M449.7,526.3c-0.5-0.9-2-1.5-4.2-2.6
	c-2.2-1.1-12.9-6.4-14.9-7.1c-2-0.7-3.5-1.1-4.9,1.1c-1.5,2.2-5.7,7.1-6.9,8.6c-1.3,1.5-2.6,1.6-4.7,0.5c-2.2-1.1-9.2-3.4-17.6-10.9
	c-6.5-5.8-10.9-13-12.2-15.1c-1.3-2.2-0.1-3.4,1-4.5c1-1,2.2-2.6,3.3-3.8c1.1-1.3,1.5-2.2,2.2-3.6c0.7-1.5,0.4-2.7-0.2-3.8
	c-0.6-1.1-4.9-11.9-6.7-16.2c-1.8-4.3-3.6-3.7-4.9-3.8l-4.2-0.1c-1.5,0-3.8,0.5-5.8,2.7c-2,2.2-7.7,7.5-7.7,18.2s7.8,21.2,8.9,22.6
	c1.1,1.5,15.4,23.5,37.3,33c5.2,2.3,9.3,3.6,12.5,4.6c5.2,1.7,10,1.4,13.8,0.9c4.2-0.6,12.9-5.3,14.8-10.4
	C450.2,531.6,450.2,527.2,449.7,526.3z"/>
</svg>
