<?xml version="1.0" encoding="utf-8"?>
<!-- Generator: Adobe Illustrator 24.0.2, SVG Export Plug-In . SVG Version: 6.00 Build 0)  -->
<svg version="1.1" id="Capa_1" xmlns="http://www.w3.org/2000/svg" xmlns:xlink="http://www.w3.org/1999/xlink" x="0px" y="0px"
	 viewBox="0 0 810.7 1012" style="enable-background:new 0 0 810.7 1012;" xml:space="preserve">
<style type="text/css">
	.st0{fill:#1D1515;}
	.st1{fill:#FFA200;}
	.st2{font-family:'NunitoSans-Black';}
	.st3{font-size:80px;}
</style>
<g>
	<g>
		<path class="st0" d="M411.2,665.4L411.2,665.4c-133,0-240.7-107.8-240.7-240.7v0c0-132.9,107.8-240.7,240.7-240.7h0
			c132.9,0,240.7,107.8,240.7,240.7v0C651.9,557.7,544.1,665.4,411.2,665.4z"/>
		<path class="st1" d="M411.1,671.4c-65.9,0-127.9-25.7-174.5-72.3s-72.3-108.6-72.3-174.5s25.7-127.9,72.3-174.5
			c46.6-46.6,108.6-72.3,174.5-72.3s127.9,25.7,174.5,72.3c46.6,46.6,72.3,108.6,72.3,174.5s-25.7,127.9-72.3,174.5
			S477,671.4,411.1,671.4z M411.1,190c-129.4,0-234.7,105.3-234.7,234.7c0,129.4,105.3,234.7,234.7,234.7h0
			c129.4,0,234.7-105.3,234.7-234.7S540.5,190,411.1,190z"/>
	</g>
	<g>
		<path class="st1" d="M507,502.8c-0.4,6.8-3.7,12.4-8,17.5c-1.3,1.6-3.5,1.5-5.5,1.5c-5.8,0-11.7,0-17.5,0
			c-45.5,0-91-0.1-136.4,0.1c-5.9,0-9.6-2-11.8-7.4c-1.1-2.9-2.9-5.5-4.8-8c0.2-0.1,0.4-0.3,0.6-0.4c0.3,0.3,0.7,0.5,1,0.8
			c15.4,16.1,41.7,11.8,51.7-6.1c8.2-14.7,5.2-33.1-8.1-43.2c-13.7-10.4-32.8-8.6-44.2,4c-9.4,10.3-12,26.9-2.6,40.9
			c-0.2,0.2-0.4,0.4-0.6,0.5c-6.7-8.5-13.6-17-20.2-25.7c-1.8-2.4-3.7-3.4-6.7-3.3c-7.2,0.2-14.5,0-21.7,0.1c-1.9,0-2.6-0.5-2.6-2.5
			c0.1-33.6,0.1-67.3,0-100.9c0-2.1,0.6-2.5,2.6-2.5c7.8,0.1,15.6,0,23.3,0.1c1.9,0,2.8-0.6,3.6-2.3c5.1-11,9.6-22.3,14.9-33.3
			c2.1-4.3,4.8-6.3,9.8-6.1c7.3,0.4,14.6,0.1,22.6,0.1c-28.2,10.4-34.1,36-29.4,53.4c5.3,19.9,23.3,32.6,44.8,31.6
			c18.5-0.8,35.8-16.4,38.9-34.6c3.4-20.4-6-41.8-29.7-50.3c1.1,0,2.2,0,3.3,0c39,0,78,0.1,117-0.1c4.7,0,7.6,1.5,9.7,5.8
			c5.4,10.9,9.8,22.2,14.9,33.3c0.9,2,1.9,2.7,4.1,2.6c5.3-0.2,10.6,0,15.9-0.1c1.8,0,2.4,0.4,2.4,2.3c-0.1,33.6,0,67.3,0,100.9
			c0,2-0.6,3.1-2.8,2.9c-2.1-0.2-4.3,0.3-6.4-0.3c0-0.2,0-0.3-0.1-0.5c1.2-5.3,2.9-10.5,3.5-16c4.1-33-19.3-65.5-52-71.8
			c-36.4-7-70.3,14.6-78.1,50.7c-5.5,25.9,2.9,47.6,22.8,65.1c11.7,10.4,25.6,14.9,40.8,15.3c13.7,0.3,26.4-3.6,37.8-11.3
			C505.2,504.8,505.6,503.2,507,502.8L507,502.8z M473.5,380.1c-25.5-13-50.8-26.6-76.2-39.8c0.9,2.2,2.4,4,3.1,6c1.4,4,4.7,6,8,7.7
			c16.4,8.5,32.8,16.9,49.2,25.3c1,0.5,2,1.2,3.3,1C465.1,379.8,469.2,379.9,473.5,380.1z M316.1,390c0,25.1,0,49.9,0,75.1
			c1.9-2.9,3.5-5.4,5.7-7.3c1-0.9,1.1-2,1.1-3.2c0-17.6,0-35.1,0-52.7c0-1.2-0.2-2.3-1.1-3.3C319.6,396.1,317.9,393.2,316.1,390z
			 M366.6,516.9c25.2,0,50,0,75.5,0c-4.4-2.1-8.3-3.7-11.8-6c-1.2-0.8-2.3-0.9-3.7-0.9c-16.4,0-32.8,0-49.3,0c-0.9,0-2-0.3-2.8,0.4
			C372,512.5,369.4,514.6,366.6,516.9z"/>
		<path class="st1" d="M401.7,267.3c23.1,0,46.2,0,69.3,0c4.8,0,6.2,1.4,6.2,6.1c0,7.3,0,14.7,0,22c0,4.6-1.5,6.1-5.9,6.1
			c-46.4,0-92.9,0-139.3,0c-4.4,0-5.8-1.5-5.8-5.8c0-7.5,0-15.1,0-22.6c0-4.3,1.4-5.7,5.9-5.7C355.3,267.3,378.5,267.3,401.7,267.3z
			"/>
		<path class="st1" d="M562.3,421c0-15.1,0-30.2,0-45.3c0-4.6,0.9-5.5,5.5-5.5c4.5,0,9.1,0,13.6,0c4.1,0,5.2,1,5.2,5.2
			c0,11.7,0,23.5,0,35.2c0,18.4,0,36.9,0,55.3c0,5.1-0.7,5.8-5.7,5.8c-4.4,0-8.9,0-13.3,0c-4.5,0-5.3-0.8-5.3-5.2
			C562.3,451.4,562.3,436.2,562.3,421z"/>
		<path class="st1" d="M467,422.6c15.4,0,27.8,12.4,27.8,27.7c0,15.2-12.7,27.9-27.8,27.8c-15.3-0.1-28.1-12.9-27.9-27.8
			C439.3,434.9,451.7,422.6,467,422.6z"/>
		<path class="st1" d="M401.8,305.5c15.4,0,30.9,0.1,46.3-0.1c2.5,0,3.4,0.6,3.2,3.2c-0.2,3.6-0.2,7.3,0,11c0.2,2.7-0.9,3.2-3.3,3.2
			c-19.6-0.1-39.3,0-58.9,0c-11.3,0-22.7-0.1-34,0.1c-2.5,0-3.1-0.7-3-3.1c0.2-3.8,0.2-7.5,0-11.3c-0.2-2.6,0.8-3,3.1-2.9
			C370.7,305.5,386.2,305.5,401.8,305.5z"/>
		<path class="st1" d="M340.4,369c-0.5-9.3,9.3-19,18.2-18.9c8.9,0.1,18.2,9.7,18,18.8c-0.2,9.9-8.2,18.1-18.1,18.1
			C348.6,387,340.4,378.9,340.4,369z"/>
		<path class="st1" d="M544,421c0-12.2,0-24.4,0-36.5c0-2,0.4-2.9,2.6-2.8c3.2,0.2,7.4-1,9.4,0.6c2.1,1.7,0.7,6.1,0.7,9.2
			c0.1,22,0,44,0.1,65.9c0,2.5-0.5,3.5-3.2,3.3c-2.2-0.2-4.5-0.2-6.8,0c-2.4,0.2-2.8-0.7-2.8-2.9C544.1,445.5,544,433.3,544,421z"/>
		<path class="st1" d="M263.9,421.2c0,5.4-0.1,10.8,0,16.1c0,1.7-0.5,2.2-2.2,2.2c-7-0.1-14-0.1-21,0c-1.8,0-2.1-0.6-2.1-2.3
			c0.1-10.9,0.1-21.7,0-32.6c0-1.7,0.5-2.2,2.2-2.2c7,0.1,14,0.1,21,0c1.8,0,2.2,0.6,2.1,2.2C263.9,410.2,263.9,415.7,263.9,421.2z"
			/>
		<path class="st1" d="M529.1,473.6c0,0.2,0.1,0.3,0.1,0.5c-2.1,3.7-4,7.5-6.2,11.1c-3.7,6.1-8.3,11.4-14.6,15.4
			c1.5-4.7,3.1-9.4,4.6-14.1c0.7-2.1,1.8-3.9-1-5.6c-1.5-0.9-1.4-3-0.6-4.7c0.9-1.8,2.5-2.6,4.5-2.5
			C520.3,474,524.7,474.3,529.1,473.6z"/>
		<path class="st1" d="M466.8,501.6c2.6-0.1,4.6,2,4.6,5.1c0,2.6-1.6,4.2-4.1,4.5c-2.5,0.3-4.8-2-4.8-4.5
			C462.4,503.8,464.3,501.7,466.8,501.6z"/>
		<path class="st1" d="M490.6,503c-0.1,2.7-2.1,4.9-4.6,4.8c-2.6-0.1-4.4-2.1-4.3-4.9c0-2.8,1.9-4.7,4.6-4.6
			C488.8,498.4,490.6,500.4,490.6,503z"/>
		<path class="st1" d="M448,498.3c2.5,0,4.4,2.1,4.3,4.7c0,2.8-2,4.9-4.6,4.8c-2.4,0-4.3-2.1-4.3-4.7
			C443.4,500.2,445.3,498.2,448,498.3z"/>
		<path class="st1" d="M522,464.5c-2.4,0-4.6-2.1-4.5-4.5c0-2.5,2.1-4.5,4.6-4.3c2.7,0.1,4.1,1.7,4.3,4.3
			C526.6,462.3,524.4,464.4,522,464.5z"/>
		<path class="st1" d="M418.6,482.7c-2.4,0-4.4-2.2-4.3-4.6c0.1-2.6,2-4.5,4.6-4.3c2.7,0.2,4.1,1.9,4.3,4.4
			C423.3,480.5,420.9,482.7,418.6,482.7z"/>
		<path class="st1" d="M411.6,445.1c-2.4-0.2-4.3-2.6-4-5c0.3-2.5,2.6-4.3,5-4c2.5,0.3,4.2,2.6,3.8,5
			C416,443.5,413.8,445.4,411.6,445.1z"/>
		<path class="st1" d="M517.5,440.5c0.1-2.5,2.2-4.4,4.7-4.3c2.5,0.1,4.4,2.2,4.3,4.7c-0.1,2.3-2.2,4.3-4.5,4.3
			C519.5,445.1,517.4,442.9,517.5,440.5z"/>
		<path class="st1" d="M466.6,399c-2.4-0.2-4.4-2.5-4.2-4.8c0.3-2.4,2.5-4.3,5-4c2.6,0.3,4,2,3.9,4.6
			C471.4,397.2,469,399.2,466.6,399z"/>
		<path class="st1" d="M448.3,393.5c2.4,0.2,4.4,2.5,4,4.9c-0.4,2.6-2.1,4-4.6,4c-2.4,0-4.3-2.3-4.2-4.8
			C443.6,395.1,445.8,393.3,448.3,393.5z"/>
		<path class="st1" d="M416.4,460c0,2.5-2.1,4.5-4.5,4.5c-2.3,0-4.3-2-4.4-4.3c-0.1-2.4,1.9-4.5,4.4-4.6
			C414.4,455.5,416.4,457.4,416.4,460z"/>
		<path class="st1" d="M435.6,492.9c0.1,2.4-2.1,4.6-4.5,4.5c-2.6-0.1-4.2-1.5-4.4-4.2c-0.2-2.5,1.7-4.5,4.2-4.6
			C433.3,488.5,435.6,490.6,435.6,492.9z"/>
		<path class="st1" d="M481.7,397.7c0.1-2.5,2.2-4.4,4.7-4.3c2.3,0.1,4.2,2.2,4.2,4.5c0,2.3-2.3,4.5-4.6,4.5
			C483.6,402.4,481.6,400.2,481.7,397.7z"/>
		<path class="st1" d="M426.7,407.5c0.1-2.5,2.1-4.4,4.7-4.3c2.7,0.2,4,1.9,4.3,4.4c0.2,2.2-2.3,4.6-4.6,4.5
			C428.7,412.1,426.6,409.9,426.7,407.5z"/>
		<path class="st1" d="M418.5,418c2.5-0.1,4.6,1.9,4.6,4.3c0,2.3-2.1,4.6-4.5,4.5c-2.6-0.1-4.2-1.5-4.3-4.2
			C414.1,420.1,416,418.1,418.5,418z"/>
		<path class="st1" d="M515.2,426.9c-2.5-0.1-4.4-2.2-4.3-4.7c0.1-2.5,2.1-4.4,4.7-4.2c2.7,0.2,4,1.9,4.1,4.4
			C519.9,424.9,517.7,427,515.2,426.9z"/>
		<path class="st1" d="M502.9,497.5c-2.3,0-4.3-1.9-4.4-4.3c-0.1-2.7,1.7-4.6,4.3-4.6c2.4,0,4.4,1.8,4.5,4.2
			C507.5,495.1,505.3,497.4,502.9,497.5z"/>
		<path class="st1" d="M507.3,407.5c0,2.5-1.9,4.6-4.3,4.6c-2.4,0.1-4.4-2-4.4-4.6c0-2.7,1.5-4.2,4.1-4.4
			C505.2,403,507.2,405,507.3,407.5z"/>
		<path class="st1" d="M327.1,347.3c1.8,0.3,3,1.3,2.8,3c-0.2,1.6-0.8,3.6-3,3.4c-2-0.2-2.5-1.9-2.6-3.6
			C324.1,348.2,325.4,347.5,327.1,347.3z"/>
		<path class="st1" d="M392.9,350.4c-0.6,1.4-0.8,3.4-3.1,3.3c-2-0.1-2.5-1.9-2.6-3.5c-0.1-1.8,1.1-2.8,2.8-2.8
			C391.8,347.4,392.8,348.5,392.9,350.4z"/>
		<path class="st1" d="M335.1,399.6c-1.8-0.2-2.8-1.2-2.8-2.9c0-1.7,1.1-2.8,2.9-2.7c1.8,0.1,2.8,1.1,2.8,2.9
			C337.9,398.6,336.8,399.4,335.1,399.6z"/>
		<path class="st1" d="M335.2,343.4c-1.7-0.1-2.8-1-2.9-2.8c0-1.7,0.9-2.9,2.7-2.9c1.8,0,2.8,0.9,2.9,2.7
			C338,342.2,337,343.1,335.2,343.4z"/>
		<path class="st1" d="M382,343.4c-1.9-0.3-2.9-1.3-2.9-3c0.1-1.7,1.1-2.8,2.9-2.7c1.8,0.1,2.8,1.2,2.7,2.9
			C384.7,342.4,383.5,343.2,382,343.4z"/>
		<path class="st1" d="M349,402.8c-0.1,2-1,3-2.9,3c-1.8,0-2.9-1.1-2.9-2.8c0-1.7,1.2-2.9,2.9-2.9
			C347.8,400.2,348.8,401.3,349,402.8z"/>
		<path class="st1" d="M361.4,405.2c-0.1,1.9-1.1,2.9-2.9,2.9c-1.7,0-2.8-1.1-2.8-2.9c0-1.7,1.1-2.8,2.9-2.8
			C360.4,402.5,361.2,403.6,361.4,405.2z"/>
		<path class="st1" d="M381.9,399.6c-1.8-0.3-2.8-1.2-2.7-3c0.1-1.8,1.2-2.7,2.9-2.7c1.8,0.1,2.7,1.2,2.7,2.9
			C384.6,398.7,383.5,399.5,381.9,399.6z"/>
		<path class="st1" d="M397.3,375.1c-0.2,1.7-1,2.8-2.8,2.9c-1.8,0.1-2.8-0.9-2.9-2.7c-0.1-1.8,1-2.9,2.7-3
			C396,372.3,396.9,373.5,397.3,375.1z"/>
		<path class="st1" d="M322.9,372.3c1.6,0.4,2.8,1.2,2.6,3.1c-0.1,1.8-1.2,2.7-3,2.6c-1.8-0.1-2.8-1.3-2.7-3
			C320,373.4,321.2,372.5,322.9,372.3z"/>
		<path class="st1" d="M358.8,334.8c-1.9,0-3-1-3.1-2.7c-0.1-1.7,0.9-2.9,2.7-3c1.7-0.1,2.9,0.9,3,2.7
			C361.5,333.6,360.5,334.6,358.8,334.8z"/>
		<path class="st1" d="M373.9,334.2c-0.2,1.7-1.1,2.8-2.9,2.8c-1.7,0-2.8-1.1-2.8-2.9c0-1.8,1-2.8,2.8-2.8
			C372.8,331.4,373.6,332.6,373.9,334.2z"/>
		<path class="st1" d="M325.6,362.5c-0.1,1.8-1,3-2.7,3.1c-1.8,0.1-2.9-1.1-3-2.7c-0.1-1.7,0.9-2.9,2.7-3
			C324.4,359.7,325.3,360.8,325.6,362.5z"/>
		<path class="st1" d="M370.8,405.9c-1.6-0.2-2.7-1.1-2.6-2.9c0.1-1.8,1.2-2.9,2.8-2.8c1.7,0.1,2.8,1.1,2.8,2.9
			C373.7,404.8,372.7,405.8,370.8,405.9z"/>
		<path class="st1" d="M349,334c-0.1,1.9-1,2.9-2.8,3c-1.8,0.1-2.9-1.1-3-2.8c0-1.6,0.9-2.9,2.8-2.9
			C347.8,331.3,348.7,332.4,349,334z"/>
		<path class="st1" d="M330,387.1c-0.3,1.7-1.2,2.9-2.9,2.8c-1.7,0-2.8-1-2.8-2.8c0-1.7,1.1-2.7,2.9-2.7
			C328.9,384.3,329.7,385.5,330,387.1z"/>
		<path class="st1" d="M394.3,365.6c-1.6-0.3-2.7-1.2-2.7-3c0-1.8,1.1-2.7,2.9-2.7c1.8,0,2.8,1.2,2.8,2.9
			C397.2,364.4,396,365.3,394.3,365.6z"/>
		<path class="st1" d="M392.9,387c-0.2,1.7-1.2,2.9-2.9,2.9c-1.7,0-2.8-1.1-2.9-2.8c0-1.8,1-2.8,2.8-2.8
			C391.8,384.3,392.7,385.4,392.9,387z"/>
		<path class="st1" d="M322,505.1c-0.8-0.5-0.8-1.4-1.1-2.2c0.2-0.2,0.4-0.4,0.6-0.5c0.6,0.6,1.2,1.2,1.1,2.2
			C322.3,504.8,322.1,504.9,322,505.1z"/>
		<path class="st1" d="M507,502.8c0.1-0.1,0.1-0.1,0.2-0.2c0,0,0.1,0,0.2,0C507.3,502.7,507.1,502.7,507,502.8
			C507,502.8,507,502.8,507,502.8z"/>
		<path class="st1" d="M322.6,505.9c-0.2-0.3-0.4-0.5-0.6-0.8c0.2-0.2,0.4-0.3,0.6-0.5c0.2,0.2,0.4,0.5,0.5,0.7
			C322.9,505.5,322.7,505.7,322.6,505.9z"/>
		<path class="st1" d="M323.1,506.4c-0.2-0.2-0.3-0.3-0.5-0.5c0.2-0.2,0.3-0.4,0.5-0.6c0.2,0.2,0.4,0.5,0.6,0.7
			C323.5,506.1,323.3,506.3,323.1,506.4z"/>
		<path class="st1" d="M348.4,497.1c-7.8,0-13.8-5.9-13.8-13.6c0-7.7,6-13.8,13.6-13.8c7.7,0,13.8,6,13.8,13.6
			C362.2,491.1,356.2,497.1,348.4,497.1z"/>
		<path class="st1" d="M368.3,505.1c0,1.4-0.6,2.3-2,2.4c-1.6,0.1-2.3-0.9-2.3-2.4c0-1.3,0.6-2.4,2.1-2.4
			C367.7,502.5,368.3,503.5,368.3,505.1z"/>
		<path class="st1" d="M330.8,502.6c1,0.1,1.7,0.8,1.9,2.2c0.1,1.5-0.4,2.6-2,2.7c-1.5,0.1-2.2-0.8-2.3-2.1
			C328.3,504,328.7,502.7,330.8,502.6z"/>
		<path class="st1" d="M339.1,459.6c-1.5,0-2.4-0.7-2.4-2c0-1.4,0.8-2.2,2.2-2.2c1.2,0,2,0.7,2.1,1.9
			C341.2,458.7,340.3,459.4,339.1,459.6z"/>
		<path class="st1" d="M322.2,497.3c0.1-1.4,0.8-2.2,2.2-2.2c1.3,0.1,2.1,1,2.1,2.3c-0.1,1.2-0.9,2-2.1,2
			C323,499.5,322.3,498.7,322.2,497.3z"/>
		<path class="st1" d="M323.3,488.3c-0.2,1.3-0.9,2.2-2.3,2.2c-1.4-0.1-2.1-1-2-2.3c0.1-1.2,0.8-2,2-2
			C322.4,486.1,323.1,487,323.3,488.3z"/>
		<path class="st1" d="M374.6,497.2c-0.2,1.3-0.8,2.3-2.2,2.2c-1.2,0-2-0.7-2.1-2c-0.1-1.4,0.6-2.3,2-2.4
			C373.6,495.1,374.3,496,374.6,497.2z"/>
		<path class="st1" d="M350.5,455.7c-0.1,1.3-0.7,2.1-1.9,2.2c-1.3,0.1-2.3-0.6-2.4-2.1c-0.1-1.2,0.6-2.1,1.9-2.2
			C349.5,453.6,350.3,454.4,350.5,455.7z"/>
		<path class="st1" d="M338.9,512.4c-1.2-0.3-2.2-0.9-2.2-2.3c0-1.2,0.8-2,2-2.1c1.4-0.1,2.3,0.7,2.3,2
			C341.1,511.5,340.1,512.1,338.9,512.4z"/>
		<path class="st1" d="M330.5,460.1c1.4,0.2,2.2,0.9,2.2,2.3c0,1.3-0.9,2-2,2c-1.4,0.1-2.3-0.9-2.3-2.1
			C328.3,461.1,329.2,460.2,330.5,460.1z"/>
		<path class="st1" d="M377.9,478.8c-0.4,1.2-1,2.2-2.4,2c-1.4-0.1-2.1-1-1.9-2.4c0.1-1.2,1-2,2.2-1.9
			C377,476.6,377.8,477.5,377.9,478.8z"/>
		<path class="st1" d="M374.6,469.5c-0.2,1.2-0.7,2.2-2.1,2.3c-1.4,0-2.2-0.7-2.2-2.1c-0.1-1.3,0.8-2,1.9-2.1
			C373.5,467.3,374.3,468.2,374.6,469.5z"/>
		<path class="st1" d="M326.5,469.8c-0.2,1.2-0.8,2-2.1,2c-1.4,0-2.2-0.8-2.2-2.2c0-1.3,0.9-2,2-2.1
			C325.7,467.4,326.4,468.4,326.5,469.8z"/>
		<path class="st1" d="M366.1,464.5c-1.3-0.3-2.3-1-2.1-2.3c0.1-1.3,0.9-2.1,2.4-2c1.2,0.1,1.9,0.9,1.9,2.1
			C368.3,463.7,367.3,464.2,366.1,464.5z"/>
		<path class="st1" d="M359.9,510.4c-0.2,1.2-1,2.1-2.4,1.9c-1.2-0.1-2-1-1.9-2.2c0.1-1.4,1-2.2,2.4-2
			C359.4,508.2,360,509,359.9,510.4z"/>
		<path class="st1" d="M375.7,490.5c-1.2-0.2-2.2-0.8-2.2-2.2c0-1.4,0.9-2.1,2.2-2.2c1.2,0,2,0.9,2.1,2
			C377.9,489.5,377.1,490.3,375.7,490.5z"/>
		<path class="st1" d="M359.9,457.7c-0.2,1.2-0.9,1.9-2.2,1.8c-1.4-0.1-2.2-0.9-2-2.3c0.1-1.2,0.9-2,2.2-1.9
			C359.2,455.4,360,456.3,359.9,457.7z"/>
		<path class="st1" d="M320.9,476.5c1.3,0.2,2.1,0.8,2.2,2.1c0,1.4-0.7,2.3-2.1,2.3c-1.2,0-2-0.7-2.1-2
			C318.8,477.3,319.8,476.8,320.9,476.5z"/>
		<path class="st1" d="M350.5,512c-0.3,1.3-1,2.1-2.4,1.9c-1.3-0.1-1.9-1-1.8-2.2c0.1-1.4,1-2.1,2.4-2
			C349.9,509.8,350.4,510.7,350.5,512z"/>
		<text transform="matrix(1 0 0 1 325.5767 584.4767)" class="st1 st2 st3">CMB</text>
	</g>
</g>
</svg>
